G04 #@! TF.FileFunction,Legend,Top*
%FSLAX46Y46*%
G04 Gerber Fmt 4.6, Leading zero omitted, Abs format (unit mm)*
G04 Created by KiCad (PCBNEW 4.0.7) date 11/05/20 13:11:54*
%MOMM*%
%LPD*%
G01*
G04 APERTURE LIST*
%ADD10C,0.100000*%
%ADD11C,0.120000*%
%ADD12C,0.150000*%
G04 APERTURE END LIST*
D10*
X145621429Y-111486190D02*
X145954762Y-111986190D01*
X145954762Y-111486190D02*
X145621429Y-111986190D01*
X146240476Y-111486190D02*
X146335714Y-111486190D01*
X146383333Y-111510000D01*
X146430952Y-111557619D01*
X146454761Y-111652857D01*
X146454761Y-111819524D01*
X146430952Y-111914762D01*
X146383333Y-111962381D01*
X146335714Y-111986190D01*
X146240476Y-111986190D01*
X146192857Y-111962381D01*
X146145238Y-111914762D01*
X146121428Y-111819524D01*
X146121428Y-111652857D01*
X146145238Y-111557619D01*
X146192857Y-111510000D01*
X146240476Y-111486190D01*
X145764287Y-110216190D02*
X146097620Y-110716190D01*
X146097620Y-110216190D02*
X145764287Y-110716190D01*
X146288096Y-110716190D02*
X146288096Y-110216190D01*
X145609524Y-109446190D02*
X145609524Y-108946190D01*
X145728571Y-108946190D01*
X145800000Y-108970000D01*
X145847619Y-109017619D01*
X145871428Y-109065238D01*
X145895238Y-109160476D01*
X145895238Y-109231905D01*
X145871428Y-109327143D01*
X145847619Y-109374762D01*
X145800000Y-109422381D01*
X145728571Y-109446190D01*
X145609524Y-109446190D01*
X146109524Y-109255714D02*
X146490476Y-109255714D01*
X145609524Y-108176190D02*
X145609524Y-107676190D01*
X145728571Y-107676190D01*
X145800000Y-107700000D01*
X145847619Y-107747619D01*
X145871428Y-107795238D01*
X145895238Y-107890476D01*
X145895238Y-107961905D01*
X145871428Y-108057143D01*
X145847619Y-108104762D01*
X145800000Y-108152381D01*
X145728571Y-108176190D01*
X145609524Y-108176190D01*
X146109524Y-107985714D02*
X146490476Y-107985714D01*
X146300000Y-108176190D02*
X146300000Y-107795238D01*
X145645239Y-106406190D02*
X145811906Y-106906190D01*
X145978572Y-106406190D01*
X146097620Y-106406190D02*
X146407143Y-106406190D01*
X146240477Y-106596667D01*
X146311905Y-106596667D01*
X146359524Y-106620476D01*
X146383334Y-106644286D01*
X146407143Y-106691905D01*
X146407143Y-106810952D01*
X146383334Y-106858571D01*
X146359524Y-106882381D01*
X146311905Y-106906190D01*
X146169048Y-106906190D01*
X146121429Y-106882381D01*
X146097620Y-106858571D01*
X145966667Y-105636190D02*
X145800000Y-105398095D01*
X145680953Y-105636190D02*
X145680953Y-105136190D01*
X145871429Y-105136190D01*
X145919048Y-105160000D01*
X145942857Y-105183810D01*
X145966667Y-105231429D01*
X145966667Y-105302857D01*
X145942857Y-105350476D01*
X145919048Y-105374286D01*
X145871429Y-105398095D01*
X145680953Y-105398095D01*
X146133334Y-105136190D02*
X146466667Y-105636190D01*
X146466667Y-105136190D02*
X146133334Y-105636190D01*
X145669048Y-103866190D02*
X145954762Y-103866190D01*
X145811905Y-104366190D02*
X145811905Y-103866190D01*
X146073810Y-103866190D02*
X146407143Y-104366190D01*
X146407143Y-103866190D02*
X146073810Y-104366190D01*
X145669047Y-102620000D02*
X145621428Y-102596190D01*
X145550000Y-102596190D01*
X145478571Y-102620000D01*
X145430952Y-102667619D01*
X145407143Y-102715238D01*
X145383333Y-102810476D01*
X145383333Y-102881905D01*
X145407143Y-102977143D01*
X145430952Y-103024762D01*
X145478571Y-103072381D01*
X145550000Y-103096190D01*
X145597619Y-103096190D01*
X145669047Y-103072381D01*
X145692857Y-103048571D01*
X145692857Y-102881905D01*
X145597619Y-102881905D01*
X145907143Y-103096190D02*
X145907143Y-102596190D01*
X146192857Y-103096190D01*
X146192857Y-102596190D01*
X146430953Y-103096190D02*
X146430953Y-102596190D01*
X146550000Y-102596190D01*
X146621429Y-102620000D01*
X146669048Y-102667619D01*
X146692857Y-102715238D01*
X146716667Y-102810476D01*
X146716667Y-102881905D01*
X146692857Y-102977143D01*
X146669048Y-103024762D01*
X146621429Y-103072381D01*
X146550000Y-103096190D01*
X146430953Y-103096190D01*
X168636191Y-111938571D02*
X168612381Y-111962381D01*
X168540953Y-111986190D01*
X168493334Y-111986190D01*
X168421905Y-111962381D01*
X168374286Y-111914762D01*
X168350477Y-111867143D01*
X168326667Y-111771905D01*
X168326667Y-111700476D01*
X168350477Y-111605238D01*
X168374286Y-111557619D01*
X168421905Y-111510000D01*
X168493334Y-111486190D01*
X168540953Y-111486190D01*
X168612381Y-111510000D01*
X168636191Y-111533810D01*
X168779048Y-111486190D02*
X169064762Y-111486190D01*
X168921905Y-111986190D02*
X168921905Y-111486190D01*
X169207619Y-111962381D02*
X169279048Y-111986190D01*
X169398095Y-111986190D01*
X169445714Y-111962381D01*
X169469524Y-111938571D01*
X169493333Y-111890952D01*
X169493333Y-111843333D01*
X169469524Y-111795714D01*
X169445714Y-111771905D01*
X169398095Y-111748095D01*
X169302857Y-111724286D01*
X169255238Y-111700476D01*
X169231429Y-111676667D01*
X169207619Y-111629048D01*
X169207619Y-111581429D01*
X169231429Y-111533810D01*
X169255238Y-111510000D01*
X169302857Y-111486190D01*
X169421905Y-111486190D01*
X169493333Y-111510000D01*
X168290953Y-110716190D02*
X168290953Y-110216190D01*
X168410000Y-110216190D01*
X168481429Y-110240000D01*
X168529048Y-110287619D01*
X168552857Y-110335238D01*
X168576667Y-110430476D01*
X168576667Y-110501905D01*
X168552857Y-110597143D01*
X168529048Y-110644762D01*
X168481429Y-110692381D01*
X168410000Y-110716190D01*
X168290953Y-110716190D01*
X168767143Y-110692381D02*
X168838572Y-110716190D01*
X168957619Y-110716190D01*
X169005238Y-110692381D01*
X169029048Y-110668571D01*
X169052857Y-110620952D01*
X169052857Y-110573333D01*
X169029048Y-110525714D01*
X169005238Y-110501905D01*
X168957619Y-110478095D01*
X168862381Y-110454286D01*
X168814762Y-110430476D01*
X168790953Y-110406667D01*
X168767143Y-110359048D01*
X168767143Y-110311429D01*
X168790953Y-110263810D01*
X168814762Y-110240000D01*
X168862381Y-110216190D01*
X168981429Y-110216190D01*
X169052857Y-110240000D01*
X169552857Y-110716190D02*
X169386190Y-110478095D01*
X169267143Y-110716190D02*
X169267143Y-110216190D01*
X169457619Y-110216190D01*
X169505238Y-110240000D01*
X169529047Y-110263810D01*
X169552857Y-110311429D01*
X169552857Y-110382857D01*
X169529047Y-110430476D01*
X169505238Y-110454286D01*
X169457619Y-110478095D01*
X169267143Y-110478095D01*
X168945715Y-109446190D02*
X168779048Y-109208095D01*
X168660001Y-109446190D02*
X168660001Y-108946190D01*
X168850477Y-108946190D01*
X168898096Y-108970000D01*
X168921905Y-108993810D01*
X168945715Y-109041429D01*
X168945715Y-109112857D01*
X168921905Y-109160476D01*
X168898096Y-109184286D01*
X168850477Y-109208095D01*
X168660001Y-109208095D01*
X169160001Y-109446190D02*
X169160001Y-108946190D01*
X168279048Y-108176190D02*
X168279048Y-107676190D01*
X168398095Y-107676190D01*
X168469524Y-107700000D01*
X168517143Y-107747619D01*
X168540952Y-107795238D01*
X168564762Y-107890476D01*
X168564762Y-107961905D01*
X168540952Y-108057143D01*
X168517143Y-108104762D01*
X168469524Y-108152381D01*
X168398095Y-108176190D01*
X168279048Y-108176190D01*
X169064762Y-108128571D02*
X169040952Y-108152381D01*
X168969524Y-108176190D01*
X168921905Y-108176190D01*
X168850476Y-108152381D01*
X168802857Y-108104762D01*
X168779048Y-108057143D01*
X168755238Y-107961905D01*
X168755238Y-107890476D01*
X168779048Y-107795238D01*
X168802857Y-107747619D01*
X168850476Y-107700000D01*
X168921905Y-107676190D01*
X168969524Y-107676190D01*
X169040952Y-107700000D01*
X169064762Y-107723810D01*
X169279048Y-108176190D02*
X169279048Y-107676190D01*
X169398095Y-107676190D01*
X169469524Y-107700000D01*
X169517143Y-107747619D01*
X169540952Y-107795238D01*
X169564762Y-107890476D01*
X169564762Y-107961905D01*
X169540952Y-108057143D01*
X169517143Y-108104762D01*
X169469524Y-108152381D01*
X169398095Y-108176190D01*
X169279048Y-108176190D01*
X168338572Y-106906190D02*
X168338572Y-106406190D01*
X168457619Y-106406190D01*
X168529048Y-106430000D01*
X168576667Y-106477619D01*
X168600476Y-106525238D01*
X168624286Y-106620476D01*
X168624286Y-106691905D01*
X168600476Y-106787143D01*
X168576667Y-106834762D01*
X168529048Y-106882381D01*
X168457619Y-106906190D01*
X168338572Y-106906190D01*
X168767143Y-106406190D02*
X169052857Y-106406190D01*
X168910000Y-106906190D02*
X168910000Y-106406190D01*
X169505238Y-106906190D02*
X169338571Y-106668095D01*
X169219524Y-106906190D02*
X169219524Y-106406190D01*
X169410000Y-106406190D01*
X169457619Y-106430000D01*
X169481428Y-106453810D01*
X169505238Y-106501429D01*
X169505238Y-106572857D01*
X169481428Y-106620476D01*
X169457619Y-106644286D01*
X169410000Y-106668095D01*
X169219524Y-106668095D01*
X168607917Y-105636190D02*
X168471012Y-105398095D01*
X168322203Y-105636190D02*
X168384703Y-105136190D01*
X168575179Y-105136190D01*
X168619822Y-105160000D01*
X168640655Y-105183810D01*
X168658512Y-105231429D01*
X168649584Y-105302857D01*
X168619822Y-105350476D01*
X168593036Y-105374286D01*
X168542441Y-105398095D01*
X168351965Y-105398095D01*
X168813274Y-105136190D02*
X169098988Y-105136190D01*
X168893631Y-105636190D02*
X168956131Y-105136190D01*
X169182321Y-105612381D02*
X169250774Y-105636190D01*
X169369821Y-105636190D01*
X169420416Y-105612381D01*
X169447203Y-105588571D01*
X169476964Y-105540952D01*
X169482916Y-105493333D01*
X169465060Y-105445714D01*
X169444226Y-105421905D01*
X169399583Y-105398095D01*
X169307321Y-105374286D01*
X169262679Y-105350476D01*
X169241846Y-105326667D01*
X169223988Y-105279048D01*
X169229940Y-105231429D01*
X169259703Y-105183810D01*
X169286488Y-105160000D01*
X169337083Y-105136190D01*
X169456131Y-105136190D01*
X169524583Y-105160000D01*
X168084108Y-104366190D02*
X167947203Y-104128095D01*
X167798394Y-104366190D02*
X167860894Y-103866190D01*
X168051370Y-103866190D01*
X168096013Y-103890000D01*
X168116846Y-103913810D01*
X168134703Y-103961429D01*
X168125775Y-104032857D01*
X168096013Y-104080476D01*
X168069227Y-104104286D01*
X168018632Y-104128095D01*
X167828156Y-104128095D01*
X168277560Y-104342381D02*
X168346013Y-104366190D01*
X168465060Y-104366190D01*
X168515655Y-104342381D01*
X168542442Y-104318571D01*
X168572203Y-104270952D01*
X168578155Y-104223333D01*
X168560299Y-104175714D01*
X168539465Y-104151905D01*
X168494822Y-104128095D01*
X168402560Y-104104286D01*
X168357918Y-104080476D01*
X168337085Y-104056667D01*
X168319227Y-104009048D01*
X168325179Y-103961429D01*
X168354942Y-103913810D01*
X168381727Y-103890000D01*
X168432322Y-103866190D01*
X168551370Y-103866190D01*
X168619822Y-103890000D01*
X168807322Y-103913810D02*
X168834108Y-103890000D01*
X168884703Y-103866190D01*
X169003750Y-103866190D01*
X169048393Y-103890000D01*
X169069227Y-103913810D01*
X169087083Y-103961429D01*
X169081131Y-104009048D01*
X169048394Y-104080476D01*
X168726965Y-104366190D01*
X169036488Y-104366190D01*
X169265655Y-103866190D02*
X169575178Y-103866190D01*
X169384703Y-104056667D01*
X169456131Y-104056667D01*
X169500774Y-104080476D01*
X169521607Y-104104286D01*
X169539464Y-104151905D01*
X169524583Y-104270952D01*
X169494822Y-104318571D01*
X169468035Y-104342381D01*
X169417440Y-104366190D01*
X169274583Y-104366190D01*
X169229940Y-104342381D01*
X169209108Y-104318571D01*
X169759702Y-103913810D02*
X169786488Y-103890000D01*
X169837083Y-103866190D01*
X169956130Y-103866190D01*
X170000773Y-103890000D01*
X170021607Y-103913810D01*
X170039463Y-103961429D01*
X170033511Y-104009048D01*
X170000774Y-104080476D01*
X169679345Y-104366190D01*
X169988868Y-104366190D01*
X168375775Y-102762857D02*
X168453155Y-103096190D01*
X168613870Y-102762857D01*
X168979940Y-103072381D02*
X168929345Y-103096190D01*
X168834107Y-103096190D01*
X168789464Y-103072381D01*
X168768632Y-103048571D01*
X168750774Y-103000952D01*
X168768631Y-102858095D01*
X168798394Y-102810476D01*
X168825179Y-102786667D01*
X168875774Y-102762857D01*
X168971012Y-102762857D01*
X169015655Y-102786667D01*
X169408511Y-103072381D02*
X169357916Y-103096190D01*
X169262678Y-103096190D01*
X169218035Y-103072381D01*
X169197203Y-103048571D01*
X169179345Y-103000952D01*
X169197202Y-102858095D01*
X169226965Y-102810476D01*
X169253750Y-102786667D01*
X169304345Y-102762857D01*
X169399583Y-102762857D01*
X169444226Y-102786667D01*
D11*
X147480000Y-112455000D02*
X148282470Y-112455000D01*
X148897530Y-112455000D02*
X149700000Y-112455000D01*
X147480000Y-103630000D02*
X147480000Y-112455000D01*
X149700000Y-103630000D02*
X149700000Y-112455000D01*
X147480000Y-103630000D02*
X148026529Y-103630000D01*
X149153471Y-103630000D02*
X149700000Y-103630000D01*
X147480000Y-102870000D02*
X147480000Y-102110000D01*
X147480000Y-102110000D02*
X148590000Y-102110000D01*
X167480000Y-102175000D02*
X166677530Y-102175000D01*
X166062470Y-102175000D02*
X165260000Y-102175000D01*
X167480000Y-111000000D02*
X167480000Y-102175000D01*
X165260000Y-111000000D02*
X165260000Y-102175000D01*
X167480000Y-111000000D02*
X166933471Y-111000000D01*
X165806529Y-111000000D02*
X165260000Y-111000000D01*
X167480000Y-111760000D02*
X167480000Y-112520000D01*
X167480000Y-112520000D02*
X166370000Y-112520000D01*
D12*
X158242000Y-101092000D02*
X158242000Y-101854000D01*
X158242000Y-101854000D02*
X156718000Y-101854000D01*
X156718000Y-101854000D02*
X156718000Y-101092000D01*
X159766000Y-112268000D02*
X155194000Y-112268000D01*
X155194000Y-112268000D02*
X155194000Y-101092000D01*
X155194000Y-101092000D02*
X159766000Y-101092000D01*
X159766000Y-101092000D02*
X159766000Y-112268000D01*
X148256667Y-100627381D02*
X148256667Y-101341667D01*
X148209047Y-101484524D01*
X148113809Y-101579762D01*
X147970952Y-101627381D01*
X147875714Y-101627381D01*
X149256667Y-101627381D02*
X148685238Y-101627381D01*
X148970952Y-101627381D02*
X148970952Y-100627381D01*
X148875714Y-100770238D01*
X148780476Y-100865476D01*
X148685238Y-100913095D01*
X166036667Y-112907381D02*
X166036667Y-113621667D01*
X165989047Y-113764524D01*
X165893809Y-113859762D01*
X165750952Y-113907381D01*
X165655714Y-113907381D01*
X166465238Y-113002619D02*
X166512857Y-112955000D01*
X166608095Y-112907381D01*
X166846191Y-112907381D01*
X166941429Y-112955000D01*
X166989048Y-113002619D01*
X167036667Y-113097857D01*
X167036667Y-113193095D01*
X166989048Y-113335952D01*
X166417619Y-113907381D01*
X167036667Y-113907381D01*
X158202381Y-107568905D02*
X159011905Y-107568905D01*
X159107143Y-107521286D01*
X159154762Y-107473667D01*
X159202381Y-107378429D01*
X159202381Y-107187952D01*
X159154762Y-107092714D01*
X159107143Y-107045095D01*
X159011905Y-106997476D01*
X158202381Y-106997476D01*
X159202381Y-105997476D02*
X159202381Y-106568905D01*
X159202381Y-106283191D02*
X158202381Y-106283191D01*
X158345238Y-106378429D01*
X158440476Y-106473667D01*
X158488095Y-106568905D01*
M02*
